<?xml version="1.0" encoding="UTF-8" standalone="no"?><!DOCTYPE svg PUBLIC "-//W3C//DTD SVG 1.1//EN" "http://www.w3.org/Graphics/SVG/1.1/DTD/svg11.dtd"><svg width="100%" height="100%" viewBox="0 0 5670 2126" version="1.1" xmlns="http://www.w3.org/2000/svg" xmlns:xlink="http://www.w3.org/1999/xlink" xml:space="preserve" xmlns:serif="http://www.serif.com/" style="fill-rule:evenodd;clip-rule:evenodd;stroke-linejoin:round;stroke-miterlimit:2;"><g><path d="M756.687,648.179l8.673,-41.631c9.444,-45.334 49.399,-77.822 95.705,-77.822l136.807,-0c47.147,-0 87.577,33.65 96.136,80.014l3.78,20.48l3.009,-18.46c7.709,-47.297 48.566,-82.034 96.487,-82.034l180.869,-0c11.413,-0 22.59,1.994 33.081,5.767c10.354,-3.733 21.519,-5.767 33.16,-5.767l172.631,-0c37.059,-0 69.302,20.621 85.88,51.014c16.579,-30.393 48.822,-51.014 85.881,-51.014l172.631,-0c22.258,-0 42.778,7.438 59.211,19.964c16.432,-12.526 36.953,-19.964 59.21,-19.964l179.596,-0c34.287,-0 209.512,-6.641 313.273,111.776c46.001,52.498 81.33,129.223 81.33,244.497c0,20.028 -1.239,39.263 -3.635,57.694l261.863,-0c53.991,-0 97.76,43.768 97.76,97.76l0,154.078c0,53.991 -43.769,97.76 -97.76,97.76l-289.748,0c-53.991,0 -97.76,-43.769 -97.76,-97.76l-0,-26.477c-47.223,35.865 -106.081,59.699 -174.527,68.388l-0,264.216c-0,53.991 -43.769,97.76 -97.761,97.76l-172.631,-0c-51.084,-0 -93.017,-39.182 -97.385,-89.133c-4.448,4.979 -9.147,9.847 -14.111,14.588c-51.091,48.793 -132.176,88.46 -266.598,88.46c-108.843,-0 -194.368,-29.739 -254.047,-82.755c-62.499,-55.521 -101.064,-138.167 -101.064,-253.749l0,-14.501l-53.616,259.137c-9.393,45.395 -49.376,77.953 -95.733,77.953l-149.559,-0c-46.832,-0 -87.086,-33.212 -95.981,-79.192l-24.321,-125.711l-27.612,127.79c-9.723,44.996 -49.52,77.113 -95.555,77.113l-150.719,-0c-46.544,-0 -86.635,-32.815 -95.833,-78.442l-176.225,-874.171c-5.793,-28.736 1.615,-58.555 20.183,-81.24c18.568,-22.684 46.335,-35.839 75.65,-35.839l176.225,-0c47.39,-0 87.956,33.99 96.251,80.649l6.899,38.804Zm-14.941,678.899c-8.416,-0.386 -16.572,-1.841 -24.328,-4.237l12.184,60.44l12.144,-56.203Zm392.134,-2.478c-6.5,1.525 -13.242,2.401 -20.149,2.557l9.481,49.004l10.668,-51.561Zm-238.951,-381.335l36.511,31.377c-2.17,-14.518 -13.739,-94.793 -12.381,-147.203l-24.13,115.826Zm61.089,-4.974c-8.164,15.874 -15.609,28.418 -19.36,34.544l3.496,-2.94l17.861,-20.784l-1.997,-10.82Zm1221.58,138.881c2.105,-2.507 4.344,-4.918 6.712,-7.221c-2.356,-2.293 -4.597,-4.703 -6.712,-7.221l-0,14.442Zm887.518,-203.36c-47.227,-6.908 -83.489,-47.583 -83.489,-96.726l-0,-150.6c-0,-53.991 43.768,-97.76 97.76,-97.76l251.482,-0c53.991,-0 97.76,43.769 97.76,97.76l0,874.172c0,53.991 -43.769,97.76 -97.76,97.76l-167.993,-0c-53.992,-0 -97.76,-43.769 -97.76,-97.76l-0,-626.846Zm1011.64,-175.026c16.666,-44.902 40.984,-82.45 73.729,-111.638c49.78,-44.372 120.831,-73.496 224.065,-73.496c100.757,-0 181.252,29.259 237.848,80.808c22.428,20.427 41.643,44.594 56.817,72.727c52.568,-92.331 148.74,-152.376 272.367,-152.376c189.768,0 315.687,143.619 315.687,328.442c-0,65.082 -17.323,126.091 -51.136,175.723c57.637,60.927 83.604,144.743 83.604,242.896c-0,199.693 -145.252,350.461 -348.154,350.461c-100.883,-0 -187.845,-37.348 -249.769,-99.456c-6.013,48.224 -47.151,85.541 -97.004,85.541l-459.057,-0c-34.493,-0 -66.434,-18.177 -84.05,-47.833c-10.663,-17.95 -15.122,-38.497 -13.322,-58.638c-54.125,73.42 -130.528,120.386 -234.338,120.386c-123.396,-0 -208.068,-66.36 -262.628,-164.632c-63.602,-114.558 -80.889,-278.383 -80.889,-384.128c0,-105.745 17.287,-269.571 80.889,-384.129c54.56,-98.273 139.232,-164.633 262.628,-164.633c123.396,0 208.069,66.361 262.629,164.633c3.5,6.304 6.86,12.757 10.084,19.342Zm31.996,647.067l138.14,-253.611c10.646,-19.633 23.105,-41.373 35.561,-64.284l-133.947,0c-0.524,0 -1.047,-0.004 -1.569,-0.012c0.427,12.448 0.623,24.366 0.623,35.627c-0,77.089 -9.187,185.046 -38.808,282.28Zm483.595,-93.555c0.551,-32.898 3.969,-63.85 10.473,-92.671l-48.836,92.671l38.363,-0Zm75.014,-224.425c2.805,-3.213 5.693,-6.367 8.666,-9.462c-1.043,-1.534 -2.07,-3.079 -3.083,-4.635c-1.804,4.707 -3.666,9.405 -5.583,14.097Zm422.099,86.516c-1.372,0.589 -2.751,1.168 -4.139,1.739c0.068,0.147 0.135,0.294 0.202,0.44c1.33,-0.696 2.643,-1.423 3.937,-2.179Zm-69.056,-100.548c-7.173,4.951 -14.976,9.226 -23.464,12.72c10.067,4.106 19.547,9.307 28.42,15.503l-4.956,-28.223Zm18.771,112.591c-7.461,-9.259 -53.979,-66.65 -79.694,-90.336c-5.374,0.643 -10.951,1.041 -16.738,1.18c5.607,75.929 86.391,87.953 96.432,89.156Zm-734.283,268.079l-4.568,8.386l9.387,0c-0.494,-0.77 -0.979,-1.548 -1.453,-2.334c-1.198,-1.986 -2.32,-4.005 -3.366,-6.052Zm621.882,-550.695c3.722,1.276 7.534,2.041 11.325,2.041c4.398,-0 8.913,-1.002 13.36,-2.647c-4.197,-0.91 -8.642,-1.4 -13.36,-1.4c-3.88,-0 -7.678,0.747 -11.325,2.006Z" style="fill:#ddd;"/><path d="M477.312,626.486l176.225,0l74.2,417.373c10.434,61.468 12.753,124.095 18.55,185.563l2.319,-0c8.115,-61.468 12.753,-124.095 25.506,-185.563l86.953,-417.373l136.807,0l111.3,602.936l2.318,-0c5.797,-61.468 6.957,-121.776 17.391,-183.243l68.403,-419.693l180.869,0l-180.869,874.172l-149.559,-0l-89.272,-461.438c-5.797,-53.349 -16.232,-106.698 -24.347,-160.048l-2.319,0c-9.275,53.35 -15.072,106.699 -27.825,160.048l-99.706,461.438l-150.719,-0l-176.225,-874.172Zm967.082,0l172.631,0l-0,565.838c-0,66.108 -8.111,165.851 85.88,165.851c84.72,0 84.72,-63.789 85.881,-128.738l-0,-602.951l172.631,0l0,637.745c0,92.784 -10.427,250.341 -259.673,250.341c-161.187,0 -257.35,-75.302 -257.35,-238.743l-0,-649.343Zm808.075,874.172l-172.631,-0l0,-874.172l179.596,0c37.147,0 296.843,-23.191 296.843,258.513c-0,163.522 -105.433,257.351 -265.5,257.351l-38.308,-2.317l0,360.625Zm0,-731.689l0,230.899c83.581,3.476 131.177,-27.847 131.177,-117.19c-0,-62.656 -24.379,-113.709 -98.673,-113.709l-32.504,-0Zm370.048,271.484l289.748,-0l-0,154.078l-289.748,-0l0,-154.078Zm456.871,-413.967l251.482,0l-0,874.172l-167.993,-0l0,-723.572l-83.489,-0l-0,-150.6Zm724.659,-13.915c209.842,0 245.756,296.741 245.756,451.002c0,154.26 -35.914,450.999 -245.756,450.999c-209.84,0 -245.756,-296.739 -245.756,-450.999c-0,-154.261 35.916,-451.002 245.756,-451.002Zm-0,157.557c-85.872,0 -77.764,236.612 -77.764,293.445c0,56.833 -8.108,293.443 77.764,293.443c85.874,-0 77.764,-236.61 77.764,-293.443c-0,-56.833 8.11,-293.445 -77.764,-293.445Zm504.343,160.07l-159.88,-0l-2.317,-47.554c-0,-162.362 46.341,-271.232 228.361,-271.232c144.955,-0 235.322,72.966 235.322,223.679c0,89.308 -31.281,160.058 -71.831,237.767l-146.079,277.2l202.848,0l0,150.6l-459.057,-0l197.009,-361.69c45.271,-83.508 112.596,-201.811 112.596,-298.078c-0,-45.233 -13.93,-107.868 -69.647,-107.868c-66.164,-0 -69.646,93.95 -69.646,141.504l2.321,55.672Zm731.811,98.585l-0,1.159c108.909,34.758 151.779,121.707 151.779,231.93c0,143.806 -104.276,252.7 -250.393,252.7c-146.122,0 -251.556,-108.894 -251.556,-252.7c0,-112.544 42.869,-196.014 151.802,-231.93l0,-2.317c-78.783,-26.648 -119.334,-101.98 -119.334,-184.372c0,-128.748 85.735,-230.682 219.087,-230.682c132.193,0 217.926,101.934 217.926,230.682c0,82.392 -39.39,156.565 -119.311,185.53Zm-100.936,84.578c-59.196,-0 -71.964,81.217 -71.964,126.466c-0,45.25 12.768,124.146 73.125,124.146c59.197,0 74.285,-81.217 74.285,-124.146c0,-42.929 -18.57,-126.466 -75.446,-126.466Zm-1.162,-173.791c53.417,0 53.417,-66.146 53.417,-98.638c-0,-31.333 -5.807,-92.836 -53.417,-92.836c-41.805,0 -47.611,60.343 -47.611,91.675c0,33.653 4.645,99.799 47.611,99.799Z" style="fill:#6b5cb1;"/></g></svg>